#!OML:ASF H:\GeneralSubjects\Female5\Project 1\Capture day 1\Session 1\Female5.ASF
:FULLY-SPECIFIED
:DEGREES
261
root -0.334292 15.5449 1.3764 129.384 -75.9314 -117.638
lowerback 8.47533 1.7252 7.91239
upperback -8.06221 3.74527 4.61839
thorax -13.5182 1.16092 -0.0210157
lowerneck -12.2532 2.24254 -2.83856
upperneck 50.3572 1.65492 -2.78489
head 24.1139 -1.57062 -1.25629
rclavicle 6.23687e-015 5.66536e-014
rhumerus -51.6203 40.887 -102.765
rradius 32.1543
rwrist -18.019
rhand -17.3743 -28.9203
rfingers 7.12502
rthumb 8.87419 -58.7137
lclavicle 6.23687e-015 5.66536e-014
lhumerus -35.2258 8.15026 81.023
lradius 21.1013
lwrist -14.3938
lhand -27.3693 35.1936
lfingers 7.12502
lthumb -0.776745 65.172
rfemur 7.17132 15.5445 45.6826
rtibia -1.86658
rfoot -31.0064 -20.1759
rtoes -5.48615
lfemur -38.8656 -16.1838 -1.23811
ltibia 16.1349
lfoot -16.7444 25.883
ltoes -57.4147
262
root -0.514277 15.5541 1.40488 130.583 -76.2021 -118.734
lowerback 8.58607 1.78116 7.20811
upperback -8.05775 3.72372 4.38189
thorax -13.596 1.21019 0.103337
lowerneck -12.8089 2.37585 -2.203
upperneck 50.2787 1.98291 -3.25226
head 24.3267 -1.3606 -1.58235
rclavicle 3.41661e-016 5.14852e-014
rhumerus -52.6239 40.2918 -102.978
rradius 31.2733
rwrist -17.4631
rhand -17.2936 -28.5429
rfingers 7.12502
rthumb 8.95204 -58.3329
lclavicle 3.41661e-016 5.14852e-014
lhumerus -35.6153 10.3685 79.1524
lradius 19.9439
lwrist -16.5143
lhand -26.3991 35.7959
lfingers 7.12502
lthumb 0.160273 65.7756
rfemur 7.57904 16.0737 45.3304
rtibia -1.41297
rfoot -31.5905 -20.4212
rtoes -5.66996
lfemur -39.0599 -15.373 -2.42652
ltibia 17.4908
lfoot -17.9396 23.6888
ltoes -55.2774
263
root -0.696064 15.5657 1.43779 130.964 -76.5173 -119.015
lowerback 8.68663 1.7913 6.69567
upperback -8.04515 3.66096 4.13024
thorax -13.6504 1.22084 0.11443
lowerneck -12.9693 2.24191 -2.52863
upperneck 49.9634 1.85572 -2.96466
head 24.0307 -1.41165 -1.3447
rclavicle -2.7364e-015 -4.53229e-014
rhumerus -53.3863 39.5256 -102.922
rradius 30.3931
rwrist -16.8185
rhand -17.0554 -28.3879
rfingers 7.12502
rthumb 9.18189 -58.168
lclavicle -2.7364e-015 -4.53229e-014
lhumerus -36.0473 11.6792 77.6993
lradius 19.1232
lwrist -18.0039
lhand -25.7731 36.4146
lfingers 7.12502
lthumb 0.764889 66.393
rfemur 7.92701 16.2805 45.0065
rtibia -0.869434
rfoot -32.1854 -20.6244
rtoes -5.56981
lfemur -38.9063 -14.8705 -3.62487
ltibia 18.3475
lfoot -16.7249 23.3557
ltoes -56.5634
264
root -0.878594 15.578 1.47656 131.059 -76.7619 -119.007
lowerback 8.74162 1.79136 6.41594
upperback -7.98792 3.60767 3.87475
thorax -13.6114 1.21565 -0.00779312
lowerneck -13.2923 2.31172 -2.15297
upperneck 49.7991 2.09863 -3.3109
head 24.0333 -1.26919 -1.55259
rclavicle -8.10669e-015 9.96408e-015
rhumerus -53.7063 38.6265 -102.534
rradius 29.457
rwrist -16.3197
rhand -16.573 -29.157
rfingers 7.12502
rthumb 9.64731 -58.9161
lclavicle -8.10669e-015 9.96408e-015
lhumerus -36.4278 12.2463 76.7074
lradius 18.6548
lwrist -18.9382
lhand -25.7679 36.8429
lfingers 7.12502
lthumb 0.769918 66.8213
rfemur 8.29651 16.2835 44.7283
rtibia -0.380326
rfoot -32.4766 -20.9961
rtoes -6.85821
lfemur -38.3585 -14.5662 -4.65113
ltibia 18.4878
lfoot -15.6227 23.1393
ltoes -57.7956
265
root -1.05874 15.5922 1.51767 131.691 -77.0329 -119.501
lowerback 8.83474 1.79032 6.11733
upperback -7.98438 3.55165 3.58342
thorax -13.6588 1.20485 -0.158288
lowerneck -13.6054 2.42613 -2.078
upperneck 49.8653 2.32555 -3.35839
head 24.2595 -1.1769 -1.55456
rclavicle 1.80754e-014 3.70236e-014
rhumerus -53.9497 37.7032 -102.146
rradius 28.379
rwrist -15.1005
rhand -15.7994 -29.8061
rfingers 7.12502
rthumb 10.3936 -59.5292
lclavicle 1.80754e-014 3.70236e-014
lhumerus -36.9744 12.4796 75.9271
lradius 18.5525
lwrist -19.4779
lhand -25.7896 36.8921
lfingers 7.12502
lthumb 0.748945 66.8705
rfemur 8.44979 15.8047 44.1688
rtibia 0.221279
rfoot -32.3274 -20.9758
rtoes -8.63644
lfemur -37.5459 -14.3512 -5.68604
ltibia 18.0856
lfoot -14.4841 23.0326
ltoes -59.0398
266
root -1.23726 15.6138 1.55909 133.053 -77.3383 -120.606
lowerback 8.82451 1.81541 5.68369
upperback -8.04077 3.49948 3.28018
thorax -13.718 1.20621 -0.243615
lowerneck -13.6422 2.53165 -1.87154
upperneck 49.8545 2.56433 -3.61483
head 24.2962 -1.07805 -1.69197
rclavicle 1.51651e-014 5.35725e-014
rhumerus -54.6307 37.3303 -102.335
rradius 27.3198
rwrist -13.6532
rhand -16.0431 -29.2288
rfingers 7.12502
rthumb 10.1586 -58.9635
lclavicle 1.51651e-014 5.35725e-014
lhumerus -37.5604 11.9891 75.6128
lradius 18.7052
lwrist -19.1669
lhand -25.5963 37.0577
lfingers 7.12502
lthumb 0.935624 67.0354
rfemur 8.36066 15.2113 43.3699
rtibia 0.922769
rfoot -32.0764 -20.4496
rtoes -9.17799
lfemur -36.7264 -14.2054 -6.71713
ltibia 17.5417
lfoot -13.6849 23.0162
ltoes -60.1428
267
root -1.41789 15.6429 1.60165 134.832 -77.6201 -122.084
lowerback 8.6807 1.86884 5.1447
upperback -8.08512 3.45917 3.01064
thorax -13.6864 1.22767 -0.230932
lowerneck -13.6353 2.66916 -1.72048
upperneck 49.8742 2.86097 -3.86111
head 24.3503 -0.971002 -1.80248
rclavicle 1.2775e-014 1.94809e-014
rhumerus -55.0038 37.1059 -102.292
rradius 26.6136
rwrist -13.6111
rhand -16.3876 -28.9955
rfingers 7.12502
rthumb 9.82619 -58.7462
lclavicle 1.2775e-014 1.94809e-014
lhumerus -38.0269 11.006 75.7396
lradius 18.9818
lwrist -18.4024
lhand -25.2075 37.1903
lfingers 7.12502
lthumb 1.31116 67.166
rfemur 8.32375 14.892 42.556
rtibia 1.51982
rfoot -31.9541 -19.6946
rtoes -8.67544
lfemur -35.95 -14.0574 -7.76585
ltibia 17.2175
lfoot -13.3273 22.8811
ltoes -61.2467
268
root -1.59836 15.6794 1.6463 136.663 -77.8839 -123.647
lowerback 8.53321 1.92291 4.58185
upperback -8.09746 3.42023 2.78599
thorax -13.6198 1.25576 -0.154883
lowerneck -13.6802 2.82584 -1.60919
upperneck 49.8989 3.21831 -4.12324
head 24.4417 -0.851678 -1.90249
rclavicle -1.13105e-014 -1.17283e-014
rhumerus -54.9769 36.9272 -101.939
rradius 26.0424
rwrist -13.9417
rhand -15.4696 -29.4169
rfingers 7.12502
rthumb 10.7118 -59.1238
lclavicle -1.13105e-014 -1.17283e-014
lhumerus -38.429 9.97527 76.0976
lradius 19.3883
lwrist -17.599
lhand -25.1733 36.5659
lfingers 7.12502
lthumb 1.34418 66.5414
rfemur 8.17215 14.3074 41.6213
rtibia 2.31249
rfoot -31.3957 -18.902
rtoes -9.31059
lfemur -35.1651 -14.1347 -8.71946
ltibia 16.9037
lfoot -13.9781 22.4293
ltoes -61.6678
269
root -1.77651 15.7228 1.6945 138.151 -78.0222 -124.863
lowerback 8.32833 1.97395 4.2102
upperback -8.07526 3.40571 2.61993
thorax -13.4711 1.28128 -0.122453
lowerneck -13.8131 2.96019 -1.57889
upperneck 49.9347 3.55418 -4.34181
head 24.584 -0.751578 -1.9684
rclavicle -6.6655e-015 2.08724e-014
rhumerus -54.4461 36.6228 -101.128
rradius 25.496
rwrist -13.8812
rhand -13.4229 -30.1926
rfingers 7.12502
rthumb 12.6855 -59.7873
lclavicle -6.6655e-015 2.08724e-014
lhumerus -38.7368 9.07532 76.5823
lradius 19.8541
lwrist -16.7103
lhand -25.5262 35.212
lfingers 7.12502
lthumb 1.00331 65.1894
rfemur 7.71114 12.8793 40.5045
rtibia 3.37471
rfoot -29.7839 -17.9856
rtoes -11.5817
lfemur -34.3308 -14.4059 -9.39304
ltibia 16.3529
lfoot -15.651 21.378
ltoes -61.0014
270
root -1.95451 15.7679 1.74574 139.082 -78.0314 -125.576
lowerback 8.15777 2.0049 4.07192
upperback -8.07543 3.40455 2.49999
thorax -13.3621 1.29039 -0.171764
lowerneck -13.851 3.10856 -1.56598
upperneck 49.9919 3.87841 -4.5105
head 24.7038 -0.65725 -2.006
rclavicle 5.24372e-015 -1.15295e-014
rhumerus -54.0115 36.4286 -100.47
rradius 25.087
rwrist -13.5101
rhand -12.2697 -30.4399
rfingers 7.12502
rthumb 13.7971 -59.9623
lclavicle 5.24372e-015 -1.15295e-014
lhumerus -38.9531 8.53642 76.9766
lradius 20.1151
lwrist -16.149
lhand -25.6463 34.8096
lfingers 7.12502
lthumb 0.887346 64.7875
rfemur 7.16842 10.9498 39.3687
rtibia 4.56139
rfoot -27.8283 -16.5016
rtoes -13.5908
lfemur -33.3961 -14.6168 -9.9553
ltibia 15.7457
lfoot -16.6997 20.1782
ltoes -60.4952
271
root -2.12736 15.8131 1.79867 139.614 -77.9996 -125.946
lowerback 8.10019 2.01949 4.02247
upperback -8.122 3.40556 2.41317
thorax -13.3769 1.28959 -0.237933
lowerneck -13.7495 3.27608 -1.58035
upperneck 50.0969 4.1784 -4.5968
head 24.8034 -0.572923 -1.99906
rclavicle 8.01584e-015 2.98177e-015
rhumerus -53.8848 36.685 -100.263
rradius 24.9076
rwrist -13.3869
rhand -11.6131 -30.6503
rfingers 7.12502
rthumb 14.4298 -60.1287
lclavicle 8.01584e-015 2.98177e-015
lhumerus -39.0738 8.16655 77.3659
lradius 20.2277
lwrist -15.9009
lhand -25.5258 35.7497
lfingers 7.12502
lthumb 1.00374 65.7271
rfemur 6.42658 9.00518 38.2798
rtibia 6.29906
rfoot -26.2743 -14.5561
rtoes -14.9705
lfemur -32.4588 -14.8438 -10.4586
ltibia 15.2198
lfoot -16.7558 19.6959
ltoes -60.9281
272
root -2.29285 15.8593 1.85184 140.438 -78.0822 -126.64
lowerback 8.04265 2.02023 3.77657
upperback -8.15482 3.36145 2.33462
thorax -13.3874 1.28781 -0.177312
lowerneck -13.6345 3.44117 -1.57797
upperneck 50.2377 4.45606 -4.68628
head 24.9405 -0.496405 -2.00761
rclavicle -1.86885e-014 4.77083e-015
rhumerus -53.5983 37.194 -100.025
rradius 24.8314
rwrist -13.109
rhand -11.3896 -30.7471
rfingers 7.12502
rthumb 14.6451 -60.2099
lclavicle -1.86885e-014 4.77083e-015
lhumerus -39.052 7.69489 77.9587
lradius 20.3648
lwrist -15.538
lhand -25.404 36.1401
lfingers 7.12502
lthumb 1.12142 66.1169
rfemur 5.4981 7.06338 37.0354
rtibia 8.43882
rfoot -24.5248 -12.9704
rtoes -16.2547
lfemur -31.4275 -15.3086 -11.043
ltibia 14.5077
lfoot -17.4054 19.3821
ltoes -60.7229
273
root -2.45328 15.9007 1.90507 141.4 -78.2055 -127.535
lowerback 8.01962 2.01385 3.42212
upperback -8.20139 3.29581 2.26326
thorax -13.4424 1.28585 -0.045454
lowerneck -13.3094 3.57925 -1.52469
upperneck 50.2992 4.67265 -4.81306
head 24.8874 -0.431473 -2.05127
rclavicle -4.28785e-015 4.25399e-014
rhumerus -52.993 37.5881 -99.5249
rradius 24.8194
rwrist -12.5841
rhand -11.4029 -30.4557
rfingers 7.12502
rthumb 14.6323 -59.9195
lclavicle -4.28785e-015 4.25399e-014
lhumerus -38.9805 7.23573 78.6257
lradius 20.4481
lwrist -15.1596
lhand -25.3942 35.7043
lfingers 7.12502
lthumb 1.13086 65.681
rfemur 4.46866 4.90888 35.6656
rtibia 10.7838
rfoot -22.0181 -11.794
rtoes -18.7128
lfemur -30.2465 -15.8577 -11.7221
ltibia 13.6141
lfoot -18.4422 19.0043
ltoes -60.0391
274
root -2.60621 15.9341 1.95969 141.777 -78.1898 -127.878
lowerback 8.15452 1.89385 3.70547
upperback -7.95765 3.17255 2.1794
thorax -13.2228 1.20592 -0.276847
lowerneck -14.0046 3.73431 -1.88864
upperneck 50.2128 5.15544 -4.7542
head 25.1289 -0.321966 -1.82641
rclavicle 2.0627e-014 5.40694e-014
rhumerus -51.6424 38.7672 -98.935
rradius 25.0775
rwrist -12.9014
rhand -11.4803 -30.2494
rfingers 7.12502
rthumb 14.5578 -59.7186
lclavicle 2.0627e-014 5.40694e-014
lhumerus -38.1795 6.9662 79.3907
lradius 20.5505
lwrist -14.5404
lhand -25.1238 35.7821
lfingers 7.12502
lthumb 1.39201 65.7573
rfemur 3.27442 2.76464 34.4718
rtibia 13.4602
rfoot -19.3768 -9.90758
rtoes -19.5278
lfemur -29.132 -16.358 -12.2119
ltibia 12.8455
lfoot -18.9222 18.8477
ltoes -60.0401
